<?xml version="1.0" encoding="UTF-8" standalone="no"?>
<!-- Created with Inkscape (http://www.inkscape.org/) -->

<svg
   width="5000"
   height="4000"
   viewBox="0 0 5000 4000"
   version="1.1"
   id="svg5"
   inkscape:version="1.2.1 (9c6d41e4, 2022-07-14)"
   sodipodi:docname="level.svg"
   xml:space="preserve"
   xmlns:inkscape="http://www.inkscape.org/namespaces/inkscape"
   xmlns:sodipodi="http://sodipodi.sourceforge.net/DTD/sodipodi-0.dtd"
   xmlns="http://www.w3.org/2000/svg"
   xmlns:svg="http://www.w3.org/2000/svg"><sodipodi:namedview
     id="namedview7"
     pagecolor="#505050"
     bordercolor="#eeeeee"
     borderopacity="1"
     inkscape:showpageshadow="0"
     inkscape:pageopacity="0"
     inkscape:pagecheckerboard="0"
     inkscape:deskcolor="#505050"
     inkscape:document-units="px"
     showgrid="false"
     inkscape:zoom="0.74085047"
     inkscape:cx="321.25241"
     inkscape:cy="527.09692"
     inkscape:window-width="1920"
     inkscape:window-height="1027"
     inkscape:window-x="0"
     inkscape:window-y="25"
     inkscape:window-maximized="1"
     inkscape:current-layer="layer1" /><defs
     id="defs2" /><g
     inkscape:label="visible"
     inkscape:groupmode="layer"
     id="layer1"
     transform="translate(3.4200697,3.4200692)"
     style="display:inline"><rect
       style="fill:#008000;stroke:none;stroke-width:5.10933;stroke-dasharray:5.10933, 15.328;stroke-dashoffset:4.08748"
       id="rect925"
       width="5013.4897"
       height="3993.9629"
       x="-1.93221"
       y="-3991.5288"
       transform="scale(1,-1)" /><path
       style="opacity:1;fill:none;stroke:#000000;stroke-width:6.476;stroke-linecap:round;stroke-linejoin:round;stroke-dashoffset:15.4205;stroke-opacity:1;stroke-dasharray:none"
       d="m 155.85634,58.670733 350.94801,53.991997 128.23101,62.09081 80.988,121.482 5.3992,121.48201 -98.53541,102.5848 -164.6756,-31.0454 -113.38321,-2.6996 -89.0868,56.6916 -113.3832,134.98001 -24.29641,155.227 39.14421,67.49001 113.3832,76.9386 122.83181,29.69553 94.486,66.1402 -25.6462,74.239 -91.78641,67.49 -157.9266,28.3458 -90.43661,94.4861 c 0,0 25.64621,125.5314 26.99601,133.6302 1.3498,8.0988 101.235,85.0374 101.235,85.0374 l 215.96801,43.1936 168.72501,-113.3832 74.239,-116.0828 90.4366,-209.2191 113.38321,-97.1856 141.72893,16.1976 148.478,-49.9426 -44.5434,-160.62614 -86.3872,-112.0334 -164.67553,-40.494 -168.72501,-6.749 -122.83181,-5.3992 -182.223,-12.1482 -303.70501,-60.741 L 115.36233,487.90715 54.621332,304.33434 34.374331,186.90174 88.366334,103.21413"
       id="path4976"
       inkscape:label="checkpoints" /></g><g
     inkscape:groupmode="layer"
     id="layer2"
     inkscape:label="obstacles"
     style="display:inline" /><g
     inkscape:groupmode="layer"
     id="layer2-8"
     inkscape:label="road"
     transform="translate(54.016442,8.1292222)"
     style="display:inline" /></svg>
